<svg xmlns="http://www.w3.org/2000/svg" width="864" height="259" viewBox="0 0 864 259"><path fill-rule="evenodd" d="m341 49.17-1 .12-1 .16-1 .01-1 .02-1 .06-1-.07-1-.19-1-.15-.44-.13-.56-.16-1-.31-1-.34-.29-.19-.71-.38-1-.46-.18-.16-.82-.54-.59-.46-.41-.35-.7-.65-.3-.32-.58-.68-.42-.52-.38-.48-.5-1-.12-.17-.42-.83-.25-1-.33-.97-.01-.03-.28-1-.17-1-.06-1-.01-1 .08-1 .1-1 .24-1 .11-.38.17-.62.26-1 .32-1 .25-.34.4-.66.51-1 .09-.1.61-.9.39-.43.53-.57.47-.47.63-.53.37-.32 1-.58.12-.1.88-.49 1-.38.2-.13.8-.36 1-.17 1-.14 1-.15.45-.18.55-.21 1-.04 1 .15 1-.16 1 .08.5.18.5.18 1 .09 1 .11 1 .19 1 .35.11.08.89.39 1 .4.24.21.76.5.59.5.41.38.67.62.33.33.63.67.37.41.47.59.53.84.14.16.41 1 .45.91.07.09.32 1 .05 1 .21 1 .21 1 .09 1v1l-.18 1-.22 1-.14 1-.28 1-.13.21-.37.79-.46 1-.17.19-.54.81-.46.62-.33.38-.67.81-.2.19-.8.76-.27.24-.73.57-.57.43-.43.32-1 .43-.41.25-.59.31-1 .28-1 .37-.18.04zm47-.05-1 .04-1 .1-1 .27-1-.03-1 .01-1 .01-1-.14-1-.2-1-.09-.23-.09-.77-.26-1-.33-.82-.41-.18-.12-1-.44-.57-.44-.43-.35-.67-.65-.33-.37-.49-.63-.51-.82-.15-.18-.41-1-.25-1-.19-.49-.2-.51-.23-1 .04-1 .07-1v-5l-.01-1 .01-1v-4l.02-1 .02-1-.2-1-.52-.62-.5-.38-.5-.33-.69-.67.65-1 .04-.03.36.03.64.06h1l1 .03 1 .02 1 .03 1 .02 1 .01h1l1 .01 1-.04 1 .25.39.61-.39.53-.89.47-.11.07-1 .86-.05.07-.17 1-.02 1v1l-.02 1v1l-.01 1v2l.01 1 .01 1v2l.01 1-.01 1-.03 1 .2 1 .08.21.24.79.12 1 .19 1 .45.73.23.27.77.84.16.16.84.63.67.37.33.22 1 .23 1 .09 1-.1 1-.12 1-.27.09-.05.91-.34 1-.41.3-.25.7-.5.56-.5.44-.46.46-.54.47-1 .07-.17.28-.83.12-1 .05-1 .09-1-.03-1-.01-1-.01-1 .01-1 .01-1 .01-1v-4l-.01-1v-1l-.01-1-.4-1-.1-.11-1-.69-.41-.2-.59-.27-.66-.73.66-.72h2l1 .01 1 .01 1-.03 1-.01 1-.03 1 .05.58.72-.58.62-.73.38-.27.19-.88.81-.12.34-.22.66-.02 1v1l-.01 1v1l-.01 1v1l.01 1 .01 1 .01 1 .01 1 .02 1-.02 1 .22.7.11.3-.09 1-.02.03-.44.97.04 1-.11 1-.23 1-.26.46-.3.54-.46 1-.24.29-.53.71-.47.53-.48.47-.52.43-1 .52-.07.05-.93.41-1 .24-.8.35zm42 .03-1 .21-1 .06-1 .02-1-.01-1 .12-1-.05-1-.12-1-.28-.44-.1-.56-.13-1-.22-1-.27-1-.23-1 .08-1 .27-.85-.5-.15-.52-.13-.48-.08-1-.08-1-.08-1-.11-1-.15-1-.12-1 .52-1 .23-.21.89.21.11.04.53.96.47.73.22.27.7 1 .08.08.86.92.14.14 1 .8.06.06.94.64.55.36.45.33 1 .32.69.35.31.21 1 .19 1-.01 1-.23.34-.16.66-.27 1-.35.48-.38.52-.42.58-.58.42-.55.36-.45.2-1-.18-1-.38-.51-.37-.49-.63-.63-.45-.37-.55-.41-1-.41-.3-.18-.7-.34-1-.24-1-.31-.18-.11-.82-.35-1-.2-1-.31-.23-.14-.77-.36-1-.31-.53-.33-.47-.31-1-.48-.23-.21-.77-.59-.42-.41-.58-.66-.3-.34-.51-1-.19-.29-.36-.71-.15-1-.06-1v-1l.05-1 .27-1 .25-.35.39-.65.61-.87.13-.13.87-.86.15-.14.85-.59.67-.41.33-.24 1-.27 1-.22.97-.27.03-.01 1-.28 1-.13 1 .06 1 .02 1-.06 1 .17.67.23.33.13 1 .23 1 .16 1 .17 1-.06 1-.23 1 .19.36.41.07 1v1l.04 1 .05 1 .07 1-.1 1-.49.45-.89-.45-.11-.11-.51-.89-.49-.69-.27-.31-.73-.72-.3-.28-.7-.57-.63-.43-.37-.29-1-.3-1-.3-.74-.11-.26-.04-1-.12-1 .13-.17.03-.83.15-1 .29-.9.56-.1.1-.73.9-.27.39-.37.61-.09 1 .46.9.08.1.92.73.36.27.64.41 1 .38.4.21.6.29 1 .29 1 .35.11.07.89.39 1 .23.83.38.17.11 1 .32 1 .32.35.25.65.38 1 .5.12.12.88.61.42.39.58.61.36.39.64.98.02.02.47 1 .25 1 .12 1 .03 1-.14 1-.18 1-.3 1-.27.37-.42.63-.58.76-.22.24-.78.78-.24.22-.76.56-.72.44-.28.21-1 .31-1 .27-.6.21zm105 .05-1 .12-1 .05-1-.01h-1l-1-.01-1-.09-.72-.26-.28-.12-1-.18-1-.17-1-.27-.41-.26-.59-.33-1-.35-.42-.32-.58-.41-.84-.59-.16-.16-.96-.84-.04-.04-.85-.96-.15-.17-.59-.83-.41-.55-.33-.45-.41-1-.26-.48-.27-.52-.21-1-.11-1-.21-1-.2-.76-.07-.24-.1-1 .14-1 .03-.06.34-.94.11-1 .06-1 .22-1 .27-.45.31-.55.38-1 .31-.42.41-.58.59-.78.21-.22.79-.86.14-.14.86-.77.25-.23.75-.57.63-.43.37-.29 1-.33.65-.38.35-.25 1-.29 1-.13 1-.16.39-.17.61-.25 1-.09 1 .14 1-.06 1-.07 1 .11.78.22.22.07 1 .19 1 .11 1 .25.84.38.16.1 1 .42.92.48.08.06 1 .59.39.35.61.52.5.48.5.5.49.5.51.62.34.38.44 1 .22.29.43.71.43 1 .14.36.22.64.1 1 .2 1 .19 1 .08 1 .02 1-.13 1-.23 1-.11 1-.33 1-.01.02-.47.98-.53.9-.08.1-.55 1-.37.47-.43.53-.57.59-.45.41-.55.49-.59.51-.41.35-.95.65-.05.05-1 .53-.79.42-.21.15-1 .28-1 .27-1 .22-.26.08zm-230-.03h-1l-1-.02-1 .03h-2l-1 .02-1 .03-1 .03h-1l-1 .08-.84-.34-.16-.17-.33-.83.33-.36 1-.29.59-.35.41-.38.39-.62.01-1v-1l-.01-1-.01-1-.01-1 .01-1v-2l.06-1-.44-1h-.01l-.99-.22-1 .04-1-.01h-1l-1 .01h-1l-1 .01-1 .01-1 .02-1 .04-1 .1-.66 1 .02 1 .01 1 .01 1v2l-.01 1-.01 1v1l.03 1 .47 1 .14.13 1 .38.66.49-.37 1-.29.21-1-.12-1-.02-1 .05-1 .03-1 .03-1 .02-1 .01-1 .01-1-.03-1 .04-1-.13-.11-.1-.36-1 .47-.5 1-.33.2-.17.8-.86.12-.14.17-1-.05-1v-1l-.01-1v-2l.01-1v-2l.01-1 .01-1 .01-1 .01-1v-1l.01-1 .01-1v-1l-.01-1-.01-1v-1l-.01-1-.27-.89-.04-.11-.96-.83-.22-.17-.78-.69-.24-.31.24-.34 1-.43 1 .04 1-.01h2l1-.01 1-.02 1-.03 1-.01 1 .02 1-.07.98.86-.98.73-.42.27-.58.35-.56.65-.11 1-.02 1v1l.01 1 .01 1 .01 1 .01 1-.02 1 .05 1 .62.48 1-.03h1l1 .02 1-.01h1l1 .02h2l1-.02 1 .01 1-.06.39-.41.06-1-.04-1-.01-1-.01-1v-3l-.02-1-.15-1-.22-.28-.84-.72-.16-.12-1-.67-.17-.21.17-.19 1-.47 1-.04 1-.04 1-.03 1-.02 1-.01 1-.01h1l1 .01 1 .03 1-.03 1 .78.01.02-.01.01-1 .81-.28.18-.72.39-.5.61-.17 1-.06 1-.01 1-.01 1-.01 1v5l.01 1v2l.01 1v2l.02 1 .01 1v2l-.03 1 .07 1 .64 1 .03.03 1 .39.59.58-.4 1zm171 .04-1-.1-1 .03-1 .02-1-.01h-1l-1 .01-1 .01-1 .02-1 .01-1 .01-1 .01h-2l-1 .02-1 .01-1 .01-1 .01-1 .02-1 .03h-2l-1-.01-.4-.31-.27-1 .67-.62 1-.28.12-.1.79-1 .09-1-.02-1 .01-1-.03-1-.01-1-.01-1-.01-1-.01-1v-2l.01-1 .01-1 .02-1 .04-.65.02-.35.05-1 .04-1 .01-1v-1l-.01-1-.02-1-.06-1-.03-.06-.28-.94-.72-.75-.35-.25-.65-.39-.55-.61.55-.77 1-.05 1 .01 1-.01 1 .01h2l1-.02h1l1 .01 1 .01 1 .01 1 .02 1 .02 1 .01h4l1-.01 1-.04 1-.1 1-.04.91.94.09.8.03.2.1 1 .08 1 .07 1 .17 1-.45.69-1-.18-.46-.51-.54-.75-.23-.25-.77-.85-.15-.15-.85-.69-.57-.31-.43-.25-1-.11-1-.04h-1l-1-.01h-1l-1-.03-1-.01-1-.08-.88.53-.12.82-.02.18-.01 1 .03 1v1l-.01 1 .01.46.01.54v1l-.01.25-.03.75.03.08.47.92.53.3 1-.05 1 .01 1-.01 1-.05 1-.07.59-.13.41-.09 1-.44.4-.47.54-1 .06-.06 1-.23.25.29.04 1-.07 1-.04 1-.03 1 .02 1 .14 1-.2 1-.11.11-.25-.11-.75-.31-.47-.69-.53-.77-.27-.23-.73-.47-1-.07-1-.02-1 .01-1 .01-1 .03-1-.01-.89.52-.11.52-.09.48.03 1 .03 1v2l-.01 1-.01 1-.02 1-.04 1-.04 1 .15.23 1 .68 1-.11 1-.01 1-.04 1-.02 1-.02 1-.03 1-.05 1-.13.93-.5.07-.06 1-.56.44-.38.56-.46.57-.54.43-.46.5-.54.5-.55.52-.45.48-.33.58.33.09 1-.37 1-.3.77-.11.23-.28 1-.15 1-.08 1-.38.71-.47.29zm99-.02-1-.06h-1l-1 .02-1 .01h-1l-1 .01-1 .02-1 .01-1-.01-1 .02-.94-.21-.06-.03-.35-.97.35-.37 1-.44.24-.19.76-.61.33-.39.13-1-.02-1v-1l-.01-1-.01-1-.01-1v-1l-.01-1-.01-1v-7l-.01-1v-2l-.01-1-.02-1-.18-1-.17-.2-.77-.8-.23-.2-1-.6-.19-.2.19-.28 1-.59 1 .09 1-.01 1 .01h1l1 .01h4l1-.02h1l1 .01h4l1-.01h2l1-.02 1-.14 1 .03.7.92.02 1 .03 1 .06 1 .05 1 .14.69.07.31-.07.11-1 .76-.77-.87-.23-.3-.46-.7-.54-.6-.4-.4-.6-.51-1-.49-1-.34-1-.08-1-.03h-1l-1-.02h-1l-1-.02-1-.04-1-.02-.57.55-.05 1 .01 1 .01 1 .01 1v1l.02 1 .01 1-.01 1 .03 1 .54.54 1 .03h1l1-.02 1-.01 1-.05 1-.04.8-.45.2-.16.64-.84.36-.49.42-.51.58-.5.66.5.05 1-.01 1-.04 1-.01 1-.01 1v1l.02 1-.44 1-.22.17-.22-.17-.78-.89-.08-.11-.56-1-.36-.34-1-.29-1-.08-1-.06-1-.05-1-.03-1 .03-1 .05-.69.77.04 1 .02 1 .01 1v1l.01 1v2l-.01 1 .04 1 .58.88.16.12.84.43.83.57-.54 1zM338.29 47l.71-.3 1-.26.7-.44.3-.24 1-.76.88-1 .12-.13.6-.87.4-.67.23-.33.3-1 .21-1 .14-1 .12-.56.1-.44.15-1 .15-1 .05-1-.03-1-.21-1-.21-.92-.02-.08-.17-1-.16-1-.27-1-.38-.8-.12-.2-.47-1-.41-.56-.34-.44-.66-.8-.2-.2-.8-.7-.4-.3-.6-.41-1-.29-.71-.3-.29-.15-1-.18-1 .21-.22.12-.78.32-1 .37-.4.31-.6.45-.61.55-.39.4-.51.6-.49.71-.23.29-.43 1-.34.69-.19.31-.34 1-.16 1-.09 1-.12 1-.1.29-.21.71-.06 1 .04 1 .23.77.09.23.21 1 .11 1 .1 1 .23 1 .26.53.24.47.38 1 .38.56.32.44.68.88.12.12.88.73.37.27.63.41 1 .25.82.34.18.1 1 .17 1-.12zm194.62 0 .09-.03 1-.4 1-.38.27-.19.73-.4.85-.6.15-.14.84-.86.16-.17.59-.83.41-.66.24-.34.32-1 .25-1 .19-.81.05-.19.22-1 .1-1 .09-1v-1l-.02-1-.16-1-.1-1-.18-.65-.1-.35-.18-1-.28-1-.44-.89-.08-.11-.51-1-.41-.56-.34-.44-.66-.71-.3-.29-.7-.6-.62-.4-.38-.27-1-.36-1-.27-.39-.1-.61-.15-1 .04-.36.11-.64.18-1 .37-.78.45-.22.17-1 .74-.09.09-.77 1-.14.15-.53.85-.47.93-.06.07-.37 1-.26 1-.17 1-.14.64-.08.36-.18 1-.16 1 .03 1 .04 1 .16 1 .12 1 .07.35.12.65.14 1 .2 1 .3 1 .24.35.38.65.62.96.04.04.85 1 .11.11 1 .63.39.26.61.35 1 .28 1 .35.08.02.92.21zM719 236.72l-1 .02-1-.04-1-.02-1-.02-1-.02-1-.01-1-.01-1-.01h-5l-1 .01h-1l-1 .01h-2l-1 .01h-8l-1-.01h-1l-1-.01h-9l-1 .01h-4l-1-.01-1-.01-1-.01h-1l-1-.01-1-.01-1 .02-1-.06-.64-.54-.29-1-.04-1 .19-1 .78-.61 1-.06 1-.14.46-.19.54-.22 1-.21 1-.36.26-.21.74-.5.51-.5.49-.63.3-.37.33-1 .15-1-.09-1-.28-1-.32-1-.09-.13-.39-.87-.29-1-.32-.59-.25-.41-.34-1-.41-.81-.14-.19-.41-1-.45-.8-.15-.2-.43-1-.42-.76-.18-.24-.39-1-.43-.83-.13-.17-.39-1-.48-.91-.07-.09-.42-1-.41-1-.1-.13-.43-.87-.42-1-.15-.23-.38-.77-.41-1-.21-.2-1-.16-1 .04h-2l-1-.01-1-.01-1-.01-1 .01-1-.01h-3l-1 .01h-1l-1 .01-1 .01h-1l-1 .01h-4l-1-.01-1-.01-1-.01h-3l-1 .01-1 .01-1 .01-1 .01-1 .02-1 .01h-1l-1 .01h-2l-1 .01-1-.01h-2l-1 .01-1 .01h-1l-1-.03-1-.03-.43.3-.57.52-.33.48-.32 1-.35.61-.26.39-.36 1-.38.68-.22.32-.37 1-.41.79-.15.21-.39 1-.46.9-.08.1-.42 1-.42 1-.08.11-.45.89-.38 1-.17.26-.39.74-.32 1-.29.47-.31.53-.35 1-.34.67-.21.33-.31 1-.18 1-.15 1 .14 1 .18 1 .51 1 .02.02.7.98.3.3.97.7.03.03 1 .51 1 .28.53.18.47.16 1 .08 1 .19.5.57.11 1-.04 1-.25 1-.32.36-1 .27-1-.01-1 .01h-2l-1-.01h-7l-1-.01h-1l-1 .01h-6l-1-.01-1-.01h-2l-1-.01-1-.01h-1l-1-.01-1 .02-1-.29-.26-.3-.07-1 .06-1 .06-1 .21-.27 1-.7.51-.03.49-.03 1-.12 1-.3 1-.33.36-.22.64-.33 1-.43.32-.24.68-.42.79-.58.21-.19 1-.7.11-.11.89-.79.21-.21.74-1 .05-.05.68-.95.32-.38.46-.62.54-.82.16-.18.51-1 .33-.5.34-.5.44-1 .22-.29.43-.71.41-1 .16-.22.41-.78.41-1 .18-.25.43-.75.5-1 .07-.09.47-.91.45-1 .08-.11.47-.89.49-1 .04-.05.47-.95.41-1 .12-.17.42-.83.41-1 .17-.24.42-.76.4-1 .18-.25.41-.75.39-1 .2-.28.39-.72.4-1 .21-.31.37-.69.39-1 .24-.34.38-.66.41-1 .21-.29.41-.71.42-1 .17-.25.41-.75.41-1 .18-.26.42-.74.45-1 .13-.19.44-.81.48-1 .08-.11.49-.89.47-1 .04-.06.47-.94.46-1 .07-.09.47-.91.53-.98.02-.02.49-1 .49-.97.02-.03.49-1 .49-.92.06-.08.45-1 .44-1 .05-.06.46-.94.44-1 .1-.13.45-.87.44-1 .11-.13.46-.87.46-1 .08-.09.48-.91.5-1 .02-.03.47-.97.47-1 .06-.08.46-.92.46-1 .08-.1.47-.9.46-1 .07-.09.45-.91.44-1 .11-.15.45-.85.47-1 .08-.1.48-.9.5-1 .02-.02.52-.98.48-.94.05-.06.46-1 .49-.95.04-.05.48-1 .48-.85.12-.15.43-1 .45-.88.09-.12.44-1 .47-.9.08-.1.43-1 .44-1 .05-.07.46-.93.46-1 .08-.11.48-.89.48-1 .04-.05.5-.95.5-1v-.01l.51-.99.49-.94.05-.06.46-1 .49-.91.07-.09.47-1 .46-.86.11-.14.46-1 .43-.81.14-.19.43-1 .43-.89.08-.11.42-1 .45-1 .05-.06.48-.94.52-.95.04-.05.48-1 .48-1 1-.66 1 .02 1-.01h2l1 .06.67.59.33.51.31.49.34 1 .35.51.34.49.37 1 .29.5.29.5.34 1 .37.63.26.37.4 1 .34.58.27.42.39 1 .34.57.28.43.38 1 .34.59.26.41.37 1 .37.73.18.27.39 1 .43.88.09.12.45 1 .46.85.12.15.43 1 .45.92.06.08.43 1 .45 1 .06.08.47.92.47 1 .06.08.48.92.52.98.02.02.5 1 .48.89.09.11.46 1 .45.84.12.16.45 1 .43.81.14.19.41 1 .45.81.15.19.41 1 .44.86.1.14.4 1 .44 1 .06.07.49.93.48 1 .03.04.49.96.47 1 .04.05.49.95.49 1 .02.02.52.98.48 1 .49 1 .43 1 .08.11.47.89.51 1 .02.02.49.98.4 1 .11.15.42.85.39 1 .19.26.41.74.4 1 .19.26.41.74.45 1 .14.18.46.82.46 1 .08.09.48.91.44 1 .08.1.48.9.45 1 .07.09.47.91.5 1 .03.04.5.96.45 1 .05.06.45.94.4 1 .15.19.45.81.43 1 .12.16.44.84.43 1 .13.16.46.84.47 1 .07.08.5.92.44 1 .06.07.47.93.39 1 .14.18.44.82.45 1 .11.14.45.86.36 1 .19.29.37.71.38 1 .25.37.37.63.39 1 .24.34.38.66.42 1 .2.27.42.73.46 1 .12.15.48.85.49 1 .03.04.52.96.48.93.06.07.49 1 .45.74.2.26.41 1 .39.64.26.36.39 1 .35.53.33.47.54 1 .13.14.64.86.36.39.56.61.44.44.63.56.37.34 1 .62.05.04.95.51 1 .44.08.05.92.38 1 .27.93.35.07.04 1 .17 1 .04.81.75.06 1-.12 1-.08 1zm-628-.54-1 .02-1 .11-1 .06-1 .09-1-.04-1 .01-1 .17-1 .08-1-.04-1-.02-1-.01h-8l-1 .01H54l-1-.01h-2l-1-.01H35l-1-.01-1-.01-1-.01h-1l-1-.01h-2l-1-.01h-1l-1-.01h-2l-1 .01-1-.16-.37-.39-.14-1-.01-1 .09-1 .43-.51 1-.44.35-.05.65-.08 1-.17 1-.18 1-.21.58-.36.42-.28 1-.66.06-.06.84-1 .1-.1.58-.9.42-.84.12-.16.35-1 .06-1 .09-1 .36-1 .02-.24.06-.76-.06-.52-.05-.48.01-1-.04-1 .01-1-.02-1-.01-1-.01-1-.01-1v-3l.01-1 .01-1 .02-1 .02-1 .02-1 .02-1 .01-1 .01-1v-.28l.01-.72v-5l.01-1-.01-1-.01-.76V194l-.01-1v-7l.01-.52.01-.48v-1l.01-1v-2l.01-1v-1l-.01-1v-7l.01-1 .01-1 .01-1 .01-1 .01-1 .01-1v-1l.01-1-.01-1-.02-1-.01-1-.01-1-.01-1-.01-1-.01-1v-1l.01-1 .01-1 .02-1 .01-1 .02-1 .01-1 .01-1v-2l-.01-1-.02-1-.01-1-.01-1-.02-1-.01-1v-1l.01-1 .03-1v-1l-.06-.13-.31-.87-.17-1-.1-1-.38-1-.04-.05-.55-.95-.45-.55-.39-.45-.61-.64-.4-.36-.6-.48-1-.49-.05-.03-.95-.38-1-.18-1-.09-1-.12-.36-.23-.64-.47-.39-.53.01-1 .19-1 .19-.32.45-.68.55-.38 1-.01 1-.02 1-.01h4l1-.01h1l1-.01 1-.01 1-.01 1-.01h2l1-.01 1 .01h1l1 .01h1l1 .01h6l1-.01h3l1 .01h2l1 .01 1 .01h1l1 .01h3l1-.01h1l1-.01 1-.01h1l1-.01h3l1 .01h1l1 .01 1 .01h4l1-.01h3l1-.02 1 .13.88.33.12.06 1 .08.9-.14.1-.02.07.02.93.2 1 .26 1-.02 1 .09 1 .24 1 .08.57.15.43.12 1 .25 1 .12 1 .12 1 .21.49.18.51.18 1 .23 1 .18 1 .27.31.14.69.28 1 .25 1 .25.41.22.59.28 1 .26 1 .33.21.13.79.35 1 .31.62.34.38.24 1 .39.72.37.28.19 1 .41.73.4.27.19 1 .48.52.33.48.33 1 .42.35.25.65.39.99.61.01.01 1 .66.39.33.61.48.73.52.27.23 1 .66.11.11.89.76.24.24.76.7.32.3.68.56.48.44.52.49.5.51.5.53.47.47.53.54.46.46.54.62.33.38.67.95.05.05.69 1 .26.29.51.71.49.7.26.3.64 1 .1.1.59.9.41.64.27.36.38 1 .35.56.3.44.38 1 .32.51.3.49.35 1 .35.65.22.35.33 1 .4 1 .05.09.36.91.24 1 .27 1 .13.3.26.7.17 1 .17 1 .16 1 .24.82.06.18.2 1 .12 1 .06 1 .18 1 .04 1-.04 1 .38.88.08.12.05 1-.01 1 .02 1-.03 1v1l-.02 1v2l.06 1-.15.37-.23.63-.2 1 .12 1-.11 1-.17 1v1l-.13 1-.19 1-.09.24-.25.76-.15 1-.17 1-.15 1-.28.83-.08.17-.31 1-.25 1-.36.92-.05.08-.36 1-.25 1-.34.73-.16.27-.36 1-.45 1-.03.04-.49.96-.47 1-.04.05-.48.95-.49 1-.03.04-.54.96-.46.7-.25.3-.48 1-.27.33-.47.67-.53.71-.26.29-.71 1-.03.03-.75.97-.25.26-.58.74-.42.48-.52.52-.48.49-.48.51-.52.52-.48.48-.52.51-.56.49-.44.38-.74.62-.26.26-.92.74-.08.08-1 .71-.21.21-.79.6-.52.4-.48.38-.96.62-.04.04-1 .66-.37.3-.63.44-.84.56-.16.15-1 .45-.66.4-.34.25-1 .38-.58.37-.42.3-1 .36-.56.34-.44.28-1 .31-.84.41-.16.12-1 .36-1 .32-.41.2-.59.27-1 .25-1 .24-.48.24-.52.25-1 .22-1 .23-.98.3-.02.01-1 .32-1 .18-1 .18-1 .14-.44.17-.56.21-1 .15-1 .13-1 .1-1 .11-1 .08-.57.22zm177 .43-1-.02-1 .01-1 .01h-3l-1-.01h-3l-1-.01h-4l-1 .01h-2l-1-.01-1 .01h-4l-1 .01h-4l-1 .01h-2l-1 .01h-3l-1 .01h-1l-1-.01h-4l-1-.01h-2l-1-.01h-9l-1 .01-1-.01-1 .01h-7l-1-.01-1 .01h-1l-1-.01h-10l-1-.01h-1l-1-.01h-4l-1 .01h-3l-1 .01-1 .03-1 .07-1-.69-.01-.02-.37-1-.03-1 .41-.97.02-.03.98-.7 1-.14 1-.09.19-.07.81-.24 1-.24.95-.52.05-.05 1-.6.37-.35.63-.63.34-.37.64-1 .02-.02.47-.98.29-1 .05-1 .15-1 .04-.07.38-.93.01-1-.02-1 .01-1v-3l-.01-1v-7l.01-1v-1l.01-1v-1l.01-1v-2l-.01-1v-2l-.01-1v-5l.01-1 .01-1v-1l.01-1v-4l-.01-1-.01-1v-1l-.01-1v-3l.01-1v-1l.01-1 .01-1v-2l.01-1v-10l-.01-1v-1l-.01-1v-7l-.01-1v-4l-.01-1v-1l-.01-1v-1l-.01-1v-2l-.01-1 .03-1-.03-1-.35-.76-.14-.24-.14-1-.1-1-.27-1-.35-.57-.29-.43-.61-1-.1-.1-.93-.9-.07-.07-1-.56-.79-.37-.21-.14-1-.3-1-.18-1-.07-1-.06-.31-.25-.6-1 .03-1 .18-1 .41-1 .29-.27 1-.08 1-.01 1-.03 1-.01 1-.01 1-.01 1-.01h1l1-.01h3l1-.01h4l1-.01h3l1-.01h2l1 .01h1l1 .01h1l1 .01h3l1 .01h2l1-.01h3l1 .01h2l1 .01h5l1-.01h1l1-.01h1l1-.01h1l1-.01 1 .01h2l1 .01 1 .01h1l1 .01h1l1-.01h1l1-.01 1-.01h1l1-.01 1-.01h3l1 .01h1l1 .01h1l1 .01 1-.01h1l1-.01h1l1-.01h2l1-.01h4l1 .01 1 .01 1-.01 1 .14.35.33.16 1 .02 1 .01 1 .01 1v1l.01 1v1l.01 1v1l.01 1v1l.02 1 .03 1 .03 1 .02 1 .02 1 .02 1 .03 1 .03 1 .02 1 .03 1 .06 1 .11.93.01.07.18 1-.19.26-.9.74-.1.07-1 .13-1 .06-.5-.26-.5-.32-.45-.68-.28-1-.27-.46-.3-.54-.36-1-.34-.53-.32-.47-.45-1-.23-.26-.5-.74-.5-.65-.32-.35-.68-.93-.07-.07-.8-1-.13-.13-.93-.87-.07-.07-1-.8-.13-.13-.87-.63-.43-.37-.57-.43-.99-.57-.01-.01-1-.52-.79-.47-.21-.18-1-.37-.94-.45-.06-.05-1-.34-1-.21-1-.37-.06-.03-.94-.32-1-.09-1-.03-1-.08-1-.24-1 .04-1 .13-1-.16-1-.14-1 .02-1-.02-1-.01h-1l-1 .01h-1l-1 .01-1 .01h-2l-1-.01-1-.01h-1l-1-.01h-3l-1 .01h-1l-1 .02-1 .03-1 .03-1 .05-1 .05-1 .26-.36.45v1l.01 1v7l-.01 1-.01 1-.01 1-.01 1-.01 1-.01 1v2l.01 1 .01 1 .01 1 .01 1 .02 1 .01 1 .01 1v1l-.01 1-.01 1-.01 1-.01 1-.01 1-.01 1v1l-.01 1 .01 1v2l.01 1 .01 1 .01 1-.06 1 .42.82.87.18.13.02.38-.02.62-.04 1 .03.43.01.57.01 1 .03 1 .01 1 .01 1 .01h1l1 .01 1 .01 1 .01 1 .01 1 .01 1 .01 1 .02 1 .02 1 .01 1 .02 1 .02 1 .02h1l1 .03 1-.01 1-.2.32-.06.68-.12 1-.11 1-.27 1-.17.52-.33.48-.31 1-.32.47-.37.53-.39.79-.61.21-.2.83-.8.17-.17.71-.83.29-.35.5-.65.5-.92.06-.08.49-1 .29-1 .16-.29.32-.71.57-1 .11-.11 1-.36 1 .03 1 .06.48.38.3 1 .02 1 .03 1 .04 1 .04 1 .06 1 .02 1 .01.45.01.55.03 1 .01 1 .01 1 .02 1 .02 1 .03 1 .02 1 .02 1v1l.01 1-.01 1-.01 1-.03 1-.03 1-.03 1-.03 1-.02 1-.02.71-.01.29.01 1v1.03l.13.97-.13.56-.11.44-.89.53-1 .05-1-.01-1-.03-.68-.54-.32-.71-.17-.29-.24-1-.22-1-.37-.69-.21-.31-.41-1-.38-.49-.39-.51-.61-.69-.31-.31-.69-.62-.42-.38-.58-.47-.8-.53-.2-.18-1-.4-.81-.42-.19-.14-1-.31-1-.2-1-.06-.68-.29-.32-.16-1-.19-1 .1-1-.05-1 .01-1 .02h-1l-1 .01h-1l-1 .01-1 .01h-1l-1-.01h-3l-1 .01h-3l-1 .01-1 .02-1 .01-1 .01-1-.03-1 .2-.02.02-.38 1 .03 1v1l.01 1v4l-.01 1v1l-.01 1-.01 1-.01 1v3l.01 1 .01 1 .01 1 .01 1 .01 1 .01 1 .01 1-.01 1v1l-.02 1-.02 1-.02 1-.01 1-.01 1-.01 1v1l.01 1v1l.02 1 .01 1 .02 1 .01 1 .01 1 .01 1 .01 1 .01 1v2l.01 1v1l.02 1-.07 1 .36.8.22.2.78.33 1-.01 1 .06 1 .04 1 .02 1 .01 1 .01h1l1 .01h2l1 .01h8l1 .01h1l1 .02 1-.13 1-.35 1 .2 1-.06.29-.17.71-.33 1-.05 1-.05 1-.2 1-.18.51-.19.49-.18 1-.22 1-.15 1-.22.54-.23.46-.2 1-.29 1-.37.18-.14.82-.43 1-.38.25-.19.75-.44 1-.51.05-.05.95-.61.52-.39.48-.37.88-.63.12-.12 1-.59.34-.29.66-.51.58-.49.42-.36.78-.64.22-.22.9-.78.1-.1 1-.9.94-1 .06-.06.86-.94.14-.14.78-.86.22-.22.7-.78.3-.32.55-.68.45-.61.32-.39.58-1 .1-.11.6-.89.4-.56.33-.44.58-1 .09-.09 1-.32 1 .18.44.23.56.27 1 .43.34.3.23 1-.33 1-.24.37-.35.63-.27 1-.28 1-.1.18-.33.82-.26 1-.38 1-.03.05-.38.95-.27 1-.32 1-.03.06-.37.94-.26 1-.36 1-.01.02-.33.98-.24 1-.22 1-.21.47-.22.53-.25 1-.22 1-.31.83-.08.17-.33 1-.21 1-.29 1-.09.2-.28.8-.23 1-.23 1-.26.71-.13.29zm132 .01h-2l-1 .01-1-.01-1-.01h-2l-1-.01h-8l-1 .01h-2l-1 .01h-1l-1 .01h-1l-1 .01h-1l-1 .01h-1l-1 .01h-1l-1-.01h-3l-1-.01h-2l-1 .01h-2l-1 .01-1 .01h-3l-1-.01h-1l-1-.01h-2l-1-.01h-4l-1 .01h-1l-1 .01h-4l-1-.01-1-.01h-5l-1-.01h-2l-1 .01h-1l-1-.01h-3l-1-.01-1-.01h-1l-1-.01h-2l-1-.01h-1l-1-.01-1-.01h-1l-1-.01-1-.01h-1l-1-.01h-1l-1-.09-.44-.45-.26-1-.01-1 .23-1 .48-.54 1-.38 1-.01.28-.07.72-.17 1-.21 1-.3.57-.32.43-.25 1-.64.11-.11.89-.96.04-.04.59-1 .37-.77.15-.23.31-1 .12-1 .01-1 .23-1 .11-1-.13-1 .03-1v-1l.02-1v-4l.01-1 .02-1v-2l-.02-1-.01-1-.01-1-.01-1-.01-1v-3l.01-1v-1l.01-1 .01-1v-1l.01-1v-2l-.01-1-.01-1v-1l-.01-1v-4l-.01-1v-9l.01-1v-4l.01-1v-1l.01-1 .01-1v-1l.01-1v-1l.01-1-.01-1v-1l-.01-1-.01-1v-4l.01-1v-1l.02-1 .02-1 .01-1 .01-1 .02-1 .01-1v-2l-.01-1v-1l-.01-1v-2l-.01-1v-1l.01-1 .07-.66.04-.34-.04-.13-.21-.87-.24-1-.09-1-.28-1-.18-.21-.48-.79-.52-.69-.28-.31-.72-.71-.34-.29-.66-.5-1-.41-.13-.09-.87-.4-1-.15-1-.12-1-.15-.41-.18-.59-.29-.47-.71.03-1 .17-1 .27-.49.38-.51.62-.4 1 .02 1-.01 1-.01 1-.01h3l1-.01h2l1-.01h1l1-.01h1l1-.01 1-.01h1l1-.01h3l1 .01h6l1 .01h5l1 .01 1 .01 1 .01 1 .01 1 .02 1 .01 1 .01 1 .01h3l1 .01 1 .01 1-.03.71.37.29.29.37.71.22 1-.04 1-.55.7-.42.3-.58.34-1 .02-1 .05-1 .08-1 .23-.56.28-.44.23-1 .39-.47.38-.53.42-.59.58-.41.49-.4.51-.49 1-.11.15-.41.85-.13 1-.07 1-.21 1-.11 1-.03 1 .06 1-.01 1-.01 1-.02 1 .01 1-.01 1 .01 1 .02 1v1l.01 1 .01 1 .02 1 .01 1 .01 1 .01 1 .01 1v3l-.02 1-.01 1-.01 1-.01 1-.01 1v1l.01 1v1l.01 1 .01 1 .01 1 .02 1v2l.01 1-.01 1v1l-.01 1-.01 1v2l-.01 1v11l.01 1v2l.01 1 .01 1 .01 1v3l.01 1v3l.01 1v3l.01 1v1l.01 1v4l-.01 1-.01 1 .01 1v2l.01 1v2l.01 1v1l.01 1 .01 1 .01 1-.05 1 .79.93.4.07.6.11 1 .23 1 .1 1 .05 1 .01h1l1 .01 1 .01h3l1-.01h2l1-.01 1-.01 1-.01 1-.01 1-.01 1-.01 1-.06 1-.32 1 .18 1 .1.92-.35.08-.04 1-.25 1 .11 1-.14 1-.22 1-.13 1-.25.2-.08.8-.24 1-.24 1-.23.56-.29.44-.24 1-.25 1-.37.19-.14.81-.4 1-.36.35-.24.65-.38 1-.52.1-.1.9-.59.6-.41.4-.3 1-.59.11-.11.89-.59.52-.41.48-.38.79-.62.21-.2.97-.8.03-.03 1-.88.09-.09.91-.85.15-.15.85-.86.14-.14.86-.99.01-.01.82-1 .17-.17.67-.83.33-.37.52-.63.48-.6.36-.4.64-.83.16-.17.63-1 .21-.23.52-.77.48-.82.14-.18.44-1 .42-.59.36-.41.64-.53 1-.01 1 .33.27.21.73.46.71.54.29.64.17.36-.17.28-.33.72-.3 1-.37.95-.03.05-.34 1-.26 1-.34 1-.03.05-.36.95-.22 1-.28 1-.14.26-.31.74-.25 1-.23 1-.21.48-.23.52-.25 1-.26 1-.26.61-.19.39-.28 1-.2 1-.33.89-.06.11-.33 1-.23 1-.31 1-.07.11-.37.89-.22 1-.34 1-.07.13-.34.87-.26 1-.23 1-.17.41-.22.59zm162-.04-1-.01-1 .01h-2l-1 .01-1-.01h-1l-1 .01-1 .01h-2l-1 .01h-3l-1 .01h-2l-1 .01h-6l-1 .01h-1l-1-.01h-1l-1-.01-1-.01-1-.01-1-.01-1-.02-1-.01-1-.02-1-.03-1-.02-1-.08-.86-.41-.14-.09-1-.38-.98-.53-.02-.02-1-.6-.51-.38-.49-.37-.86-.63-.14-.13-.95-.87-.05-.05-.84-.95-.16-.16-.74-.84-.26-.27-.68-.73-.32-.32-.66-.68-.34-.34-.58-.66-.42-.51-.42-.49-.58-.67-.32-.33-.68-.87-.13-.13-.63-1-.24-.25-.6-.75-.4-.47-.47-.53-.53-.61-.35-.39-.65-.86-.14-.14-.67-1-.19-.19-.67-.81-.33-.36-.53-.64-.47-.54-.39-.46-.61-.77-.22-.23-.65-1-.13-.13-.65-.87-.35-.39-.52-.61-.48-.57-.37-.43-.63-.79-.21-.21-.66-1-.13-.13-.68-.87-.32-.34-.54-.66-.46-.56-.38-.44-.62-.83-.17-.17-.61-1-.22-.23-.55-.77-.45-.58-.35-.42-.65-.87-.13-.13-.71-1-.16-.16-.67-.84-.33-.39-.57-.61-.43-.37-1-.09-1 .02-1-.03-1-.05-1-.05-1-.02-1-.01-1-.01-1-.02-1-.01-1-.03-1 .16-.39.51.02 1v1l-.01 1v6l.01 1v6l-.01 1-.01 1v1l-.01 1v1l-.01 1v1l.01 1v1l-.02 1 .12 1 .25 1 .05.53.04.47.32 1 .32 1 .32.4.45.6.55.61.4.39.6.52.73.48.27.22 1 .39 1 .31.2.08.8.26 1 .08 1 .18.43.48.11 1-.02 1-.1 1-.42.49-1 .14-1-.01-1 .01h-2l-1-.01-1-.01h-1l-1-.01h-1l-1-.01h-5l-1 .01h-2l-1 .01h-6l-1-.01h-3l-1-.01h-4l-1-.01h-6l-1-.01h-2l-1 .01-1-.01-1-.01-.76-.56-.24-.98-.01-.02-.07-1 .08-.24.21-.76.79-.7 1-.15 1-.1.14-.05.86-.23 1-.21 1-.38.24-.18.76-.45.67-.55.33-.31.59-.69.41-.59.3-.41.32-1 .38-.96.02-.04.21-1-.02-1 .25-1 .02-1-.07-1 .02-1v-1l.01-1 .01-1v-1l.01-1v-1l.01-1v-1l.01-1v-4l-.01-1v-11l-.01-1v-2l-.01-1v-1l-.01-1v-3l-.01-1v-10l-.01-1v-3l-.01-1 .01-1v-6l.01-1v-2l.01-1v-3l.01-1-.01-1v-7l.01-1v-1l.01-1 .01-1 .01-1v-5l.03-1-.13-1-.27-1-.11-.61-.07-.39-.33-1-.51-1-.09-.09-.63-.91-.37-.39-.68-.61-.32-.3-1-.39-.55-.31-.45-.27-1-.21-1-.13-1-.07-1-.2-.14-.12-.65-1 .04-1 .13-1 .31-1 .31-.33 1-.17 1 .02 1-.02 1 .02h1l1 .01h7l1-.01h6l1 .01 1 .01h12l1 .01 1 .01 1 .01 1 .01h1l1 .01h3l1-.01h1l1-.01 1-.01 1-.01h1l1-.01h1l1 .01h4l1 .01h3l1 .01h3l1 .01 1 .01h1l1 .01h1l1-.01 1 .2.5.21.5.21 1-.03 1-.04 1 .29 1 .1 1-.04 1 .23 1 .2.55.08.45.07 1 .24 1 .17 1 .16 1 .29.15.07.85.29 1 .2 1 .19.89.32.11.06 1 .31 1 .24 1 .36.05.03.95.43 1 .3.42.27.58.34 1 .33.55.33.45.29 1 .35.53.36.47.34 1 .44.27.22.73.48.92.52.08.07 1 .61.37.32.63.51.6.49.4.35.87.65.13.13 1 .76.11.11.89.88.12.12.84 1 .04.04.74.96.26.27.61.73.39.48.42.52.58.9.09.1.51 1 .4.63.26.37.38 1 .36.67.21.33.31 1 .3 1 .18.36.28.64.2 1 .19 1 .26 1 .07.14.3.86.14 1-.03 1 .16 1 .22 1-.02 1 .03 1-.03 1 .01 1 .06 1-.03 1-.33 1v1l-.04 1-.22 1-.22.67-.12.33-.24 1-.23 1-.29 1-.12.21-.35.79-.32 1-.33.56-.27.44-.39 1-.34.54-.31.46-.43 1-.26.32-.46.68-.54.68-.28.32-.71 1-.01.01-.71.99-.29.3-.7.7-.3.29-.76.71-.24.23-.72.77-.28.29-.84.71-.16.15-1 .6-.28.25-.72.53-.59.47-.41.34-1 .51-.18.15-.82.49-1 .51-1 .54-.79.46-.21.17-1 .43-.87.4-.13.09-1 .41-1 .28-.36.22-.64.33-1 .26-1 .32-.19.09-.81.3-1 .23-1 .18-.71.29-.29.14-1 .14-1 .64-.05.08.05.05.95.95.05.05.94.95.06.06.8.94.2.2.67.8.33.36.58.64.42.43.55.57.45.47.49.53.51.59.38.41.62.69.31.31.69.78.22.22.78.9.1.1.7 1 .2.2.66.8.34.36.54.64.46.54.41.46.59.65.34.35.66.73.27.27.73.83.17.17.82 1 .01.01.96.99.04.04.84.96.16.16.7.84.3.31.66.69.34.34.65.66.35.35.64.65.36.37.63.63.37.38.61.62.39.39.59.61.41.42.58.58.42.4.64.6.36.35.8.65.2.19 1 .66.16.15.84.59.6.41.4.3 1 .47.34.23.66.38 1 .33.55.29.45.25 1 .32 1 .29.25.14.75.34 1 .17 1 .11 1 .05 1 .01.43.32.55 1-.01 1-.1 1-.14 1zm240-.01h-1l-1 .01-1 .01h-4l-1-.01-1 .01h-4l-1 .01-1 .01h-3l-1 .01h-3l-1-.01h-4l-1-.01h-4l-1-.01h-2l-1-.01h-2l-1-.01h-3l-1-.01h-3l-1-.01-1 .06-1-.47-.13-.14-.31-1-.06-1 .26-1 .24-.28 1-.6 1-.01.57-.11.43-.09 1-.29 1-.23.72-.39.28-.19 1-.5.34-.31.66-.64.32-.36.65-1 .03-.04.48-.96.28-1 .09-1 .15-.62.1-.38.21-1-.04-1-.01-1 .02-1v-1l.01-1v-5l.01-1v-4l.01-1v-4l.01-1 .01-1v-1l.01-1v-1l.01-1 .01-1-.01-1v-1l-.02-1 .01-1 .04-1-.38-.81-.13-.19-.67-1-.2-.22-.49-.78-.51-.86-.12-.14-.51-1-.37-.49-.38-.51-.62-.99-.01-.01-.6-1-.39-.55-.34-.45-.52-1-.14-.17-.52-.83-.48-.68-.27-.32-.49-1-.24-.3-.46-.7-.54-.83-.15-.17-.5-1-.35-.46-.38-.54-.57-1-.05-.05-.58-.95-.42-.6-.3-.4-.53-1-.17-.2-.51-.8-.49-.75-.21-.25-.47-1-.32-.41-.41-.59-.57-1-.02-.02-.61-.98-.39-.55-.34-.45-.52-1-.14-.16-.54-.84-.46-.66-.27-.34-.53-1-.2-.23-.5-.77-.5-.75-.22-.25-.48-1-.3-.39-.42-.61-.58-.95-.05-.05-.56-1-.39-.56-.33-.44-.52-1-.15-.18-.51-.82-.49-.68-.27-.32-.5-1-.23-.29-.46-.71-.54-.83-.15-.17-.55-1-.3-.37-.44-.63-.56-.83-.16-.17-.51-1-.33-.43-.4-.57-.58-1-.02-.02-.62-.98-.38-.51-.37-.49-.59-1-.04-.05-.58-.95-.42-.53-.37-.47-.63-.85-.15-.15-.7-1-.15-.15-.76-.85-.24-.24-.85-.76-.15-.15-1-.69-.16-.16-.84-.61-.63-.39-.37-.27-1-.34-1-.38-.01-.01-.99-.43-1-.14-1-.05-1-.02-.61-.36-.39-.39-.35-.61-.06-1 .14-1 .27-.58.29-.42.71-.39 1 .03 1-.02 1-.02 1-.01h3l1-.01h11l1-.01h1l1-.01 1-.01h1l1-.01h5l1 .01h1l1 .01h3l1 .01h3l1 .01h1l1 .01 1 .01h1l1 .01 1 .01 1 .01h2l1 .01h2l1-.02.63.38.37.57.21.43.2 1-.02 1-.39.64-.32.36-.68.41-1-.03-1 .05-1 .1-1 .21-.67.26-.33.15-1 .36-.62.49-.38.34-.58.66-.42.66-.26.34-.24 1 .02 1 .15 1 .33.69.18.31.34 1 .48.86.12.14.49 1 .39.59.3.41.48 1 .22.28.47.72.53.84.14.16.52 1 .34.45.39.55.54 1 .07.07.56.93.44.66.27.34.53 1 .2.24.49.76.51.86.12.14.51 1 .37.5.37.5.6 1 .03.03.62.97.38.52.36.48.44 1 .2.22.5.78.5.82.15.18.49 1 .36.55.32.45.47 1 .21.24.5.76.5.79.18.21.48 1 .34.46.37.54.53 1 .1.11.54.89.46.7.25.3.44 1 .31.37.43.63.57.96.04.04.56 1 .4.59.32.41.48 1 .2.22.5.78.5.83.15.17.46 1 .39.62.28.38.37 1 .35.44 1 .06.4-.5.48-1 .12-.13.55-.87.45-.65.28-.35.49-1 .23-.27.5-.73.5-.73.22-.27.53-1 .25-.31.46-.69.54-.83.15-.17.54-1 .31-.41.41-.59.59-.98.02-.02.56-1 .42-.64.28-.36.51-1 .21-.24.52-.76.48-.69.26-.31.5-1 .24-.29.48-.71.52-.85.13-.15.56-1 .31-.38.46-.62.54-.84.14-.16.54-1 .32-.43.4-.57.55-1 .05-.05.56-.95.44-.68.25-.32.5-1 .25-.33.47-.67.53-.85.12-.15.54-1 .34-.49.36-.51.5-1 .14-.18.49-.82.51-.95.04-.05.51-1 .45-.71.22-.29.5-1 .28-.37.42-.63.53-1 .05-.05.54-.95.46-.77.18-.23.4-1 .35-1 .07-.11.38-.89.07-1-.23-1-.22-.31-.38-.69-.62-.88-.12-.12-.88-.72-.5-.28-.5-.28-1-.2-1-.12-1-.04-1 .03-.72-.39-.28-.32-.35-.68-.07-1 .18-1 .24-.4.44-.6.56-.38 1 .03 1-.01 1-.02 1-.01 1-.01h2l1-.01h1l1-.01h2l1 .01 1 .01h1l1 .02h1l1 .01h1l1 .01h1l1-.01h1l1-.01 1-.01 1-.01h3l1 .01 1 .02 1 .05.39.32.32 1 .02 1-.01 1-.5 1-.22.19-1 .17-1 .09-1 .16-1 .36-.04.03-.96.44-1 .38-.23.18-.77.46-.8.54-.2.18-1 .63-.2.19-.8.64-.38.36-.62.61-.4.39-.6.65-.32.35-.68.99-.01.01-.67 1-.32.39-.49.61-.51.71-.24.29-.52 1-.24.29-.49.71-.51.68-.27.32-.59 1-.14.16-.56.84-.44.64-.28.36-.53 1-.19.22-.52.78-.48.77-.18.23-.53 1-.29.35-.49.65-.51.71-.25.29-.55 1-.2.24-.51.76-.49.69-.26.31-.56 1-.18.21-.54.79-.46.66-.27.34-.55 1-.18.21-.52.79-.48.88-.1.12-.52 1-.38.54-.35.46-.62 1-.03.03-.58.97-.42.6-.3.4-.59 1-.11.12-.57.88-.43.63-.27.37-.49 1-.24.31-.43.69-.57.95-.04.05-.56 1-.4.56-.34.44-.58 1-.08.08-.6.92-.4.57-.32.43-.55 1-.13.15-.54.85-.46.66-.27.34-.5 1-.23.3-.47.7-.53.8-.17.2-.55 1-.28.36-.44.64-.56.9-.09.1-.58 1-.33.42-.43.58-.57.97-.03.03-.58 1-.39.51-.36.49-.64 1-.36 1 .02 1 .03 1v1l-.01 1-.01 1v1l-.01 1 .01 1v6l-.01 1-.01 1v1l-.01 1v8l.01 1 .01 1v1l.02 1-.02 1 .01 1 .33.97.02.03.2 1 .06 1 .21 1 .35 1 .16.19.51.81.49.59.39.41.61.56.67.44.33.26 1 .38.87.36.13.08 1 .29 1 .04h1l.81.59.19.71.09.29-.08 1-.01.03-.2.97zM79.25 229l.75-.35 1-.04 1-.09 1-.22.86-.3.14-.07 1-.3 1-.21 1-.36.1-.06.9-.36 1-.27.75-.37.25-.17 1-.38.78-.45.22-.17 1-.49.43-.34.57-.4.85-.6.15-.15 1-.59.27-.26.73-.54.54-.46.46-.4.69-.6.31-.31.79-.69.21-.21.74-.79.26-.26.66-.74.34-.38.52-.62.48-.57.38-.43.62-.88.12-.12.56-1 .32-.41.4-.59.5-1 .1-.11.52-.89.48-.89.1-.11.37-1 .37-1 .16-.26.36-.74.3-1 .34-.71.17-.29.29-1 .3-1 .24-.53.22-.47.27-1 .26-1 .25-.6.18-.4.23-1 .2-1 .17-1 .22-.63.14-.37.22-1 .05-1 .13-1 .22-1 .1-1 .04-1 .1-.22.29-.78.15-1-.13-1 .12-1 .21-1-.02-1 .03-1v-3l-.03-1 .01-1-.12-1-.12-1 .06-1-.07-1-.38-.83-.1-.17.1-.8.03-.2-.03-.19-.11-.81-.26-1-.08-1-.08-1-.17-1-.29-1-.01-.02-.31-.98-.15-1-.18-1-.28-1-.08-.14-.35-.86-.2-1-.26-1-.19-.37-.29-.63-.31-1-.4-.98-.01-.02-.44-1-.34-1-.21-.29-.41-.71-.41-1-.18-.22-.47-.78-.53-.88-.11-.12-.56-1-.33-.41-.42-.59-.58-.81-.18-.19-.67-1-.15-.15-.67-.85-.33-.37-.51-.63-.49-.57-.39-.43-.61-.61-.4-.39-.6-.54-.51-.46-.49-.45-.63-.55-.37-.34-.97-.66-.03-.03-1-.61-.48-.36-.52-.38-1-.38-.29-.24-.71-.44-1-.46-.14-.1-.86-.44-1-.28-.53-.28-.47-.26-1-.25-1-.26-.58-.23-.42-.18-1-.22-1-.19-1-.24-1-.15-.07-.02-.93-.23-1-.27-1 .02-1 .02-1-.29-1-.23-1 .06-1 .01-1-.01-1 .03h-1l-1 .02-1-.02-1-.02-1 .31-1 .02-1 .06-1 .33-.39.19-.61.27-1 .4-.33.33-.23 1-.03 1-.01 1-.01 1v7l.01 1v3l.01 1-.01 1v2l-.01 1v1l-.01 1v6l.01 1v4l-.01 1v9l.01 1v8l-.01 1v6l-.01 1v2l-.01 1v3l-.01 1v5l.01 1 .01 1 .01 1 .01 1v1l.01 1 .01 1v3l-.02 1v1l-.01 1-.01 1v4l.01 1 .01 1 .01 1 .02 1v1l.14 1 .44.41 1 .19 1 .13.58.27.42.21 1 .16 1-.05 1 .17 1 .04h1l1 .01h1l1 .01 1-.01h1l1 .01 1-.05 1-.42 1 .08 1-.01zm413.24-40 .51-.07 1-.4 1 .05 1-.12 1-.03 1-.33 1-.07.07-.03.93-.3 1-.15 1-.22.77-.33.23-.13 1-.3 1-.31.47-.26.53-.29 1-.4.43-.31.57-.38.92-.62.08-.08 1-.63.31-.29.69-.57.46-.43.54-.48.55-.52.45-.43.57-.57.43-.46.52-.54.48-.5.45-.5.55-.81.17-.19.52-1 .31-.41.4-.59.41-1 .19-.32.33-.68.29-1 .38-.79.14-.21.35-1 .22-1 .29-.76.11-.24.2-1 .12-1 .17-1 .15-1-.05-1 .29-1 .01-.02.37-.98.01-1-.03-1 .01-1-.02-1-.34-.75-.15-.25-.03-1v-1l-.22-1-.14-1-.16-1-.29-1-.01-.02-.36-.98-.27-1-.37-.77-.14-.23-.35-1-.37-1-.14-.21-.39-.79-.44-1-.17-.19-.51-.81-.49-.75-.22-.25-.55-1-.23-.23-.65-.77-.35-.37-.58-.63-.42-.43-.6-.57-.4-.39-.78-.61-.22-.21-1-.49-.35-.3-.65-.44-.98-.56-.02-.02-1-.51-.86-.47-.14-.12-1-.34-1-.29-.56-.25-.44-.21-1-.27-1-.18-1-.27-.75-.07-.25-.03-1-.24-1-.3-1 .07h-1l-1-.31-1-.11h-1l-1-.04-1-.02h-1l-1-.01-1 .02-1-.01-1 .01-1 .06h-1l-1-.08-1 .44-1 .06-1 .02-1 .27-.32.2-.68.35-1 .26-.5.39-.5.83-.12.17-.15 1-.05 1-.04 1-.01 1-.01 1v2l-.01 1v2l.01 1v6l-.01 1v4l.01 1v3l.01 1v6l-.01 1v2l-.01 1v6l.01 1v3l.01 1-.01 1v2l-.01 1v1l-.01 1-.02 1 .42.51 1 .09 1 .03 1 .03 1 .03 1 .02 1-.06 1 .07 1 .15 1 .05 1 .04 1 .04 1 .01 1 .01h1l1 .03h1l1 .02zm168.52 8 .21-1-.22-.25-.48-.75-.32-1-.2-.26-.42-.74-.4-1-.18-.21-.46-.79-.4-1-.14-.18-.45-.82-.39-1-.16-.22-.42-.78-.39-1-.19-.26-.42-.74-.47-1-.11-.13-.48-.87-.52-1-.49-1-.45-1-.06-.07-.46-.93-.42-1-.12-.14-.46-.86-.41-1-.13-.15-.47-.85-.38-1-.15-.19-.44-.81-.45-1-.11-.13-.45-.87-.4-1-.15-.2-.44-.8-.5-1-.06-.07-.5-.93-.49-1-.01-.01-.48-.99-.46-1-.06-.07-.48-.93-.45-1-.07-.09-.44-.91-.3-1-.26-.31-.48-.69-.44-1-.08-.08-1-.25-.29.33-.3 1-.41.7-.22.3-.38 1-.4.72-.19.28-.38 1-.43.82-.13.18-.42 1-.45.81-.14.19-.42 1-.44.82-.13.18-.45 1-.42.78-.16.22-.43 1-.41.72-.2.28-.44 1-.36.58-.28.42-.38 1-.34.53-.32.47-.39 1-.29.42-.36.58-.34 1-.3.46-.33.54-.34 1-.33.52-.31.48-.32 1-.37.72-.19.28-.42 1-.39.66-.24.34-.35 1-.41.74-.19.26-.41 1-.4.63-.27.37-.4 1-.33.52-.32.48-.35 1-.33.57-.27.43-.43 1-.3.35-.45.65.3 1 .15.13 1 .03 1 .02 1 .04 1 .02 1 .01 1 .01 1 .01h1l1 .01h2l1 .01h2l1-.01h4l1-.01h1l1-.01h2l1 .01h1l1 .01h5l1-.01 1-.01 1-.02h1l1-.04 1 .01z"/></svg>